<mxfile host="app.diagrams.net" modified="2023-08-25T13:43:55.649Z" agent="Mozilla/5.0 (X11; Linux x86_64; rv:104.0) Gecko/20100101 Firefox/104.0" etag="TjcdPmTUHR_0tfmkkrFP" version="21.6.8" type="github">
  <diagram name="Página-1" id="XqFH4mpEuwGKciEyU_d3">
    <mxGraphModel dx="1434" dy="718" grid="1" gridSize="10" guides="1" tooltips="1" connect="1" arrows="1" fold="1" page="1" pageScale="1" pageWidth="827" pageHeight="1169" math="0" shadow="0">
      <root>
        <mxCell id="0" />
        <mxCell id="1" parent="0" />
        <mxCell id="YhGfjfBx8RfRu0yJ-VAR-1" value="funcionário" style="whiteSpace=wrap;html=1;align=center;" parent="1" vertex="1">
          <mxGeometry x="120" y="140" width="100" height="40" as="geometry" />
        </mxCell>
        <mxCell id="YhGfjfBx8RfRu0yJ-VAR-2" value="departamento" style="whiteSpace=wrap;html=1;align=center;" parent="1" vertex="1">
          <mxGeometry x="440" y="140" width="100" height="40" as="geometry" />
        </mxCell>
        <mxCell id="YhGfjfBx8RfRu0yJ-VAR-3" value="alocar" style="shape=rhombus;perimeter=rhombusPerimeter;whiteSpace=wrap;html=1;align=center;" parent="1" vertex="1">
          <mxGeometry x="270" y="130" width="120" height="60" as="geometry" />
        </mxCell>
        <mxCell id="YhGfjfBx8RfRu0yJ-VAR-4" value="pertencer" style="shape=rhombus;perimeter=rhombusPerimeter;whiteSpace=wrap;html=1;align=center;" parent="1" vertex="1">
          <mxGeometry x="100" y="260" width="120" height="60" as="geometry" />
        </mxCell>
        <mxCell id="YhGfjfBx8RfRu0yJ-VAR-5" value="projeto" style="swimlane;whiteSpace=wrap;html=1;" parent="1" vertex="1">
          <mxGeometry x="105" y="370" width="115" height="120" as="geometry" />
        </mxCell>
        <mxCell id="YhGfjfBx8RfRu0yJ-VAR-7" value="fornecedor" style="text;html=1;align=center;verticalAlign=middle;resizable=0;points=[];autosize=1;strokeColor=none;fillColor=none;" parent="YhGfjfBx8RfRu0yJ-VAR-5" vertex="1">
          <mxGeometry y="30" width="80" height="30" as="geometry" />
        </mxCell>
        <mxCell id="YhGfjfBx8RfRu0yJ-VAR-8" value="data de inicio" style="text;html=1;align=center;verticalAlign=middle;resizable=0;points=[];autosize=1;strokeColor=none;fillColor=none;" parent="YhGfjfBx8RfRu0yJ-VAR-5" vertex="1">
          <mxGeometry y="54" width="90" height="30" as="geometry" />
        </mxCell>
        <mxCell id="YhGfjfBx8RfRu0yJ-VAR-9" value="horas trabalhadas" style="text;html=1;align=center;verticalAlign=middle;resizable=0;points=[];autosize=1;strokeColor=none;fillColor=none;" parent="YhGfjfBx8RfRu0yJ-VAR-5" vertex="1">
          <mxGeometry x="-5" y="80" width="120" height="30" as="geometry" />
        </mxCell>
        <mxCell id="YhGfjfBx8RfRu0yJ-VAR-10" value="utilizar" style="shape=rhombus;perimeter=rhombusPerimeter;whiteSpace=wrap;html=1;align=center;" parent="1" vertex="1">
          <mxGeometry x="270" y="400" width="120" height="60" as="geometry" />
        </mxCell>
        <mxCell id="YhGfjfBx8RfRu0yJ-VAR-11" value="peças" style="whiteSpace=wrap;html=1;align=center;" parent="1" vertex="1">
          <mxGeometry x="440" y="410" width="100" height="40" as="geometry" />
        </mxCell>
        <mxCell id="YhGfjfBx8RfRu0yJ-VAR-12" value="fornecer" style="shape=rhombus;perimeter=rhombusPerimeter;whiteSpace=wrap;html=1;align=center;" parent="1" vertex="1">
          <mxGeometry x="580" y="400" width="120" height="60" as="geometry" />
        </mxCell>
        <mxCell id="YhGfjfBx8RfRu0yJ-VAR-13" value="fornecedor" style="whiteSpace=wrap;html=1;align=center;" parent="1" vertex="1">
          <mxGeometry x="590" y="530" width="100" height="40" as="geometry" />
        </mxCell>
        <mxCell id="YhGfjfBx8RfRu0yJ-VAR-14" value="depõsito" style="whiteSpace=wrap;html=1;align=center;" parent="1" vertex="1">
          <mxGeometry x="260" y="585" width="100" height="40" as="geometry" />
        </mxCell>
        <mxCell id="YhGfjfBx8RfRu0yJ-VAR-15" value="conter" style="shape=rhombus;perimeter=rhombusPerimeter;whiteSpace=wrap;html=1;align=center;" parent="1" vertex="1">
          <mxGeometry x="430" y="500" width="120" height="60" as="geometry" />
        </mxCell>
        <mxCell id="YhGfjfBx8RfRu0yJ-VAR-16" value="" style="endArrow=none;html=1;rounded=0;exitX=1;exitY=0.5;exitDx=0;exitDy=0;entryX=0;entryY=0.5;entryDx=0;entryDy=0;" parent="1" source="YhGfjfBx8RfRu0yJ-VAR-1" target="YhGfjfBx8RfRu0yJ-VAR-3" edge="1">
          <mxGeometry width="50" height="50" relative="1" as="geometry">
            <mxPoint x="390" y="380" as="sourcePoint" />
            <mxPoint x="440" y="330" as="targetPoint" />
          </mxGeometry>
        </mxCell>
        <mxCell id="YhGfjfBx8RfRu0yJ-VAR-17" value="" style="endArrow=none;html=1;rounded=0;exitX=1;exitY=0.5;exitDx=0;exitDy=0;entryX=0;entryY=0.5;entryDx=0;entryDy=0;" parent="1" source="YhGfjfBx8RfRu0yJ-VAR-3" target="YhGfjfBx8RfRu0yJ-VAR-2" edge="1">
          <mxGeometry width="50" height="50" relative="1" as="geometry">
            <mxPoint x="390" y="380" as="sourcePoint" />
            <mxPoint x="440" y="330" as="targetPoint" />
          </mxGeometry>
        </mxCell>
        <mxCell id="YhGfjfBx8RfRu0yJ-VAR-18" value="" style="endArrow=none;html=1;rounded=0;entryX=0.39;entryY=1.075;entryDx=0;entryDy=0;exitX=0.5;exitY=0;exitDx=0;exitDy=0;entryPerimeter=0;" parent="1" source="YhGfjfBx8RfRu0yJ-VAR-4" target="YhGfjfBx8RfRu0yJ-VAR-1" edge="1">
          <mxGeometry width="50" height="50" relative="1" as="geometry">
            <mxPoint x="390" y="380" as="sourcePoint" />
            <mxPoint x="270" y="260" as="targetPoint" />
          </mxGeometry>
        </mxCell>
        <mxCell id="YhGfjfBx8RfRu0yJ-VAR-19" value="" style="endArrow=none;html=1;rounded=0;entryX=0.5;entryY=1;entryDx=0;entryDy=0;exitX=0.5;exitY=0;exitDx=0;exitDy=0;" parent="1" source="YhGfjfBx8RfRu0yJ-VAR-5" target="YhGfjfBx8RfRu0yJ-VAR-4" edge="1">
          <mxGeometry width="50" height="50" relative="1" as="geometry">
            <mxPoint x="390" y="380" as="sourcePoint" />
            <mxPoint x="440" y="330" as="targetPoint" />
          </mxGeometry>
        </mxCell>
        <mxCell id="YhGfjfBx8RfRu0yJ-VAR-20" value="" style="endArrow=none;html=1;rounded=0;exitX=0;exitY=0.5;exitDx=0;exitDy=0;entryX=1;entryY=0.5;entryDx=0;entryDy=0;" parent="1" source="YhGfjfBx8RfRu0yJ-VAR-10" target="YhGfjfBx8RfRu0yJ-VAR-5" edge="1">
          <mxGeometry width="50" height="50" relative="1" as="geometry">
            <mxPoint x="390" y="380" as="sourcePoint" />
            <mxPoint x="440" y="330" as="targetPoint" />
          </mxGeometry>
        </mxCell>
        <mxCell id="YhGfjfBx8RfRu0yJ-VAR-21" value="" style="endArrow=none;html=1;rounded=0;exitX=1;exitY=0.5;exitDx=0;exitDy=0;entryX=0;entryY=0.5;entryDx=0;entryDy=0;" parent="1" source="YhGfjfBx8RfRu0yJ-VAR-10" target="YhGfjfBx8RfRu0yJ-VAR-11" edge="1">
          <mxGeometry width="50" height="50" relative="1" as="geometry">
            <mxPoint x="390" y="380" as="sourcePoint" />
            <mxPoint x="440" y="330" as="targetPoint" />
          </mxGeometry>
        </mxCell>
        <mxCell id="YhGfjfBx8RfRu0yJ-VAR-22" value="" style="endArrow=none;html=1;rounded=0;exitX=0;exitY=0.5;exitDx=0;exitDy=0;entryX=1;entryY=0.5;entryDx=0;entryDy=0;" parent="1" source="YhGfjfBx8RfRu0yJ-VAR-12" target="YhGfjfBx8RfRu0yJ-VAR-11" edge="1">
          <mxGeometry width="50" height="50" relative="1" as="geometry">
            <mxPoint x="390" y="380" as="sourcePoint" />
            <mxPoint x="440" y="330" as="targetPoint" />
          </mxGeometry>
        </mxCell>
        <mxCell id="YhGfjfBx8RfRu0yJ-VAR-23" value="" style="endArrow=none;html=1;rounded=0;exitX=0.5;exitY=0;exitDx=0;exitDy=0;entryX=0.5;entryY=1;entryDx=0;entryDy=0;" parent="1" source="YhGfjfBx8RfRu0yJ-VAR-15" target="YhGfjfBx8RfRu0yJ-VAR-11" edge="1">
          <mxGeometry width="50" height="50" relative="1" as="geometry">
            <mxPoint x="390" y="380" as="sourcePoint" />
            <mxPoint x="440" y="330" as="targetPoint" />
          </mxGeometry>
        </mxCell>
        <mxCell id="YhGfjfBx8RfRu0yJ-VAR-24" value="" style="endArrow=none;html=1;rounded=0;entryX=0.5;entryY=1;entryDx=0;entryDy=0;exitX=0.5;exitY=0;exitDx=0;exitDy=0;" parent="1" source="YhGfjfBx8RfRu0yJ-VAR-13" target="YhGfjfBx8RfRu0yJ-VAR-12" edge="1">
          <mxGeometry width="50" height="50" relative="1" as="geometry">
            <mxPoint x="390" y="380" as="sourcePoint" />
            <mxPoint x="440" y="330" as="targetPoint" />
          </mxGeometry>
        </mxCell>
        <mxCell id="YhGfjfBx8RfRu0yJ-VAR-25" value="" style="endArrow=none;html=1;rounded=0;exitX=1;exitY=0;exitDx=0;exitDy=0;entryX=0;entryY=0.5;entryDx=0;entryDy=0;" parent="1" source="YhGfjfBx8RfRu0yJ-VAR-14" target="YhGfjfBx8RfRu0yJ-VAR-15" edge="1">
          <mxGeometry width="50" height="50" relative="1" as="geometry">
            <mxPoint x="390" y="380" as="sourcePoint" />
            <mxPoint x="420" y="520" as="targetPoint" />
          </mxGeometry>
        </mxCell>
      </root>
    </mxGraphModel>
  </diagram>
</mxfile>
